<svg width="170" height="168" viewBox="0 0 170 168" fill="none" xmlns="http://www.w3.org/2000/svg">
<path d="M77.5 92.5C56.7888 92.5 40 68.2112 40 47.5V40C40 19.2888 56.7888 2.5 77.5 2.5C98.2112 2.5 115 19.2888 115 40V47.5C115 68.2112 98.2112 92.5 77.5 92.5Z" stroke="#5FCCD7" stroke-width="5" stroke-miterlimit="10" stroke-linecap="square"/>
<path d="M102.561 112.817C94.885 111.857 86.4925 111.25 77.5 111.25C53.92 111.25 34.4612 115.368 21.2762 119.29C10.1275 122.605 2.5 132.831 2.5 144.46V160H96.25" stroke="#5FCCD7" stroke-width="5" stroke-miterlimit="10"/>
<path d="M162.107 109.162C153.898 100.923 140.195 102.269 133.749 112.015C127.295 102.258 113.593 100.93 105.392 109.162C98.2028 116.377 98.2028 128.077 105.392 135.288L133.745 163.75L162.107 135.288C169.295 128.073 169.295 116.377 162.107 109.162Z" stroke="#5FCCD7" stroke-width="5" stroke-miterlimit="10" stroke-linecap="square"/>
</svg>
