<svg width="170" height="156" viewBox="0 0 170 156" fill="none" xmlns="http://www.w3.org/2000/svg">
<path d="M2.5 40.5L85 3L167.5 40.5" stroke="#5FCCD7" stroke-width="5" stroke-miterlimit="10"/>
<path d="M70 144.27C70 139.74 68.0125 135.427 64.465 132.615C59.0425 128.31 49.6375 123 36.25 123C22.8625 123 13.4575 128.31 8.035 132.615C4.4875 135.427 2.5 139.74 2.5 144.27V153H70V144.27Z" stroke="#5FCCD7" stroke-width="5" stroke-miterlimit="10" stroke-linecap="square"/>
<path d="M36.25 100.5C46.6053 100.5 55 92.1053 55 81.75C55 71.3947 46.6053 63 36.25 63C25.8947 63 17.5 71.3947 17.5 81.75C17.5 92.1053 25.8947 100.5 36.25 100.5Z" stroke="#5FCCD7" stroke-width="5" stroke-miterlimit="10" stroke-linecap="square"/>
<path d="M167.5 144.27C167.5 139.74 165.512 135.427 161.965 132.615C156.542 128.31 147.137 123 133.75 123C120.363 123 110.957 128.31 105.535 132.615C101.987 135.427 100 139.74 100 144.27V153H167.5V144.27Z" stroke="#5FCCD7" stroke-width="5" stroke-miterlimit="10" stroke-linecap="square"/>
<path d="M133.75 100.5C144.105 100.5 152.5 92.1053 152.5 81.75C152.5 71.3947 144.105 63 133.75 63C123.395 63 115 71.3947 115 81.75C115 92.1053 123.395 100.5 133.75 100.5Z" stroke="#5FCCD7" stroke-width="5" stroke-miterlimit="10" stroke-linecap="square"/>
</svg>
