<svg width="24" height="24" viewBox="0 0 24 24" fill="none" xmlns="http://www.w3.org/2000/svg">
<g clip-path="url(#clip0)">
<path d="M14.3793 6.2403V10.1524L15.7464 11.0133C15.7825 11.0238 15.8606 11.0245 15.8967 11.0133L21.7806 7.04631C21.7806 6.57682 21.3427 6.2403 21.0956 6.2403H14.3793Z" fill="#0EC0FB"/>
<path d="M14.3793 11.612L15.627 12.4691C15.8028 12.5983 16.0146 12.4691 16.0146 12.4691C15.8035 12.5983 21.7814 8.62759 21.7814 8.62759V15.8178C21.7814 16.6005 21.2804 16.9288 20.717 16.9288H14.3786V11.612H14.3793Z" fill="#0EC0FB"/>
<path d="M7.91924 9.80841C7.49408 9.80841 7.1553 10.0082 6.90516 10.4071C6.65502 10.806 6.52957 11.334 6.52957 11.9913C6.52957 12.6584 6.65502 13.1857 6.90516 13.5733C7.1553 13.9617 7.48356 14.1547 7.8892 14.1547C8.3076 14.1547 8.63962 13.9662 8.8845 13.5891C9.12939 13.212 9.25258 12.6884 9.25258 12.0191C9.25258 11.3213 9.13389 10.7782 8.89577 10.3898C8.65765 10.0022 8.33239 9.80841 7.91924 9.80841Z" fill="#0EC0FB"/>
<path d="M2 4.25352V19.5587L13.6432 22V2L2 4.25352V4.25352ZM9.79117 14.4935C9.29915 15.141 8.65765 15.4655 7.86592 15.4655C7.09446 15.4655 6.46648 15.1516 5.98047 14.5243C5.49521 13.8963 5.25183 13.0791 5.25183 12.071C5.25183 11.0066 5.49822 10.1457 5.99174 9.48845C6.48526 8.83118 7.13878 8.50216 7.9523 8.50216C8.72075 8.50216 9.34272 8.81615 9.81671 9.44564C10.2915 10.0751 10.5288 10.9044 10.5288 11.9343C10.5296 12.9927 10.2832 13.846 9.79117 14.4935Z" fill="#0EC0FB"/>
</g>
<defs>
<clipPath id="clip0">
<rect width="19.7814" height="20" fill="white" transform="translate(2 2)"/>
</clipPath>
</defs>
</svg>
