<svg width="24" height="24" viewBox="0 0 24 24" fill="none" xmlns="http://www.w3.org/2000/svg">
<mask id="mask0" mask-type="alpha" maskUnits="userSpaceOnUse" x="3" y="3" width="18" height="18">
<path d="M20.7907 10.3636H12.2093V13.8409H17.1488C16.6884 16.05 14.7628 17.3182 12.2093 17.3182C9.19535 17.3182 6.76744 14.9455 6.76744 12C6.76744 9.05455 9.19535 6.68182 12.2093 6.68182C13.507 6.68182 14.6791 7.13182 15.6 7.86818L18.2791 5.25C16.6465 3.85909 14.5535 3 12.2093 3C7.10233 3 3 7.00909 3 12C3 16.9909 7.10233 21 12.2093 21C16.814 21 21 17.7273 21 12C21 11.4682 20.9163 10.8955 20.7907 10.3636Z" fill="white"/>
</mask>
<g mask="url(#mask0)">
<path d="M2.16281 17.3182V6.68179L9.27909 12L2.16281 17.3182Z" fill="#FBBC05"/>
</g>
<path d="M20.7907 10.3636H12.2093V13.8409H17.1488C16.6884 16.05 14.7628 17.3182 12.2093 17.3182C9.19535 17.3182 6.76744 14.9455 6.76744 12C6.76744 9.05455 9.19535 6.68182 12.2093 6.68182C13.507 6.68182 14.6791 7.13182 15.6 7.86818L18.2791 5.25C16.6465 3.85909 14.5535 3 12.2093 3C7.10233 3 3 7.00909 3 12C3 16.9909 7.10233 21 12.2093 21C16.814 21 21 17.7273 21 12C21 11.4682 20.9163 10.8955 20.7907 10.3636Z" fill="white"/>
</svg>
