<svg width="729" height="51" viewBox="0 0 729 51" fill="none" xmlns="http://www.w3.org/2000/svg">
<rect x="429" y="24" width="300" height="3" fill="#FFC9A1"/>
<rect y="24" width="300" height="3" fill="#FFC9A1"/>
<rect x="341.048" y="7.33716" width="46.643" height="43.4986" rx="10.4816" fill="#D32343"/>
<rect x="340" y="5.24078" width="48.7394" height="43.4986" rx="10.4816" fill="#FE5750"/>
<mask id="mask0" mask-type="alpha" maskUnits="userSpaceOnUse" x="340" y="5" width="49" height="44">
<rect x="340" y="5.24078" width="48.7394" height="43.4986" rx="10.4816" fill="#FE5750"/>
</mask>
<g mask="url(#mask0)">
<circle opacity="0.5" cx="373.803" cy="50.5736" r="4.45467" fill="#F64D4D"/>
<circle cx="387.953" cy="28.0382" r="4.45467" fill="#F64D4D"/>
<circle cx="340.262" cy="28.0382" r="4.45467" fill="#F64D4D"/>
<ellipse opacity="0.2" cx="345.765" cy="43.7606" rx="5.76487" ry="6.02691" fill="#D72242"/>
<ellipse cx="355.642" cy="8.42092" rx="4.97875" ry="7.07507" transform="rotate(21.8846 355.642 8.42092)" fill="#D32343" fill-opacity="0.18"/>
<ellipse cx="376.606" cy="8.42092" rx="4.97875" ry="7.07507" transform="rotate(21.8846 376.606 8.42092)" fill="#D32343" fill-opacity="0.18"/>
<circle opacity="0.4" cx="383.761" cy="38.5198" r="2.35836" fill="#FE7770"/>
<path d="M366.942 38.7941C367.341 38.1035 367.902 37.2532 368.546 36.9478C369.19 36.642 370.204 36.7458 370.994 36.8758C372.051 37.0498 373.169 36.6686 373.89 35.7779C374.61 34.8888 374.748 33.7218 374.355 32.7302C374.062 31.99 373.747 31.0235 373.908 30.3308C374.072 29.6384 374.785 28.9118 375.378 28.3778C376.171 27.6625 376.567 26.5557 376.318 25.4406C376.068 24.3239 375.236 23.4879 374.211 23.1767C373.446 22.9446 372.49 22.5893 372.049 22.0307C371.608 21.4722 371.484 20.4624 371.435 19.6673C371.369 18.6031 370.747 17.6039 369.715 17.1026C368.684 16.6012 367.511 16.7271 366.628 17.3298C365.968 17.7801 365.092 18.3036 364.379 18.3006C363.666 18.2979 362.797 17.766 362.142 17.308C361.265 16.6943 360.092 16.5551 359.055 17.0462C358.019 17.5362 357.386 18.5279 357.308 19.5909C357.25 20.3854 357.113 21.3934 356.665 21.9478C356.217 22.502 355.257 22.8486 354.49 23.0738C353.466 23.3745 352.629 24.1976 352.366 25.3062H352.366L352.365 25.31C352.365 25.311 352.364 25.3122 352.364 25.3136H352.364C352.106 26.4235 352.49 27.5309 353.274 28.253C353.861 28.7937 354.567 29.5288 354.721 30.2233C354.876 30.9182 354.549 31.8821 354.248 32.6198C353.844 33.6068 353.97 34.775 354.68 35.6722C355.391 36.5708 356.505 36.9645 357.564 36.802C358.354 36.6806 359.369 36.588 360.01 36.9009C360.651 37.2135 361.203 38.0697 361.593 38.7648C362.116 39.6953 363.112 40.3264 364.259 40.3328C365.407 40.3391 366.409 39.7188 366.942 38.7941Z" fill="#D32343"/>
<path d="M362.104 30.5411C362.86 31.2458 363.889 31.6941 364.999 31.6941C365.996 31.6941 366.864 31.3901 367.588 30.8135C367.958 30.5411 368.553 30.6053 368.875 30.9896C369.164 31.3901 369.1 31.9663 368.714 32.2706C367.701 33.0555 366.414 33.5197 364.999 33.5197C361.783 33.5197 359.113 30.9414 359.097 27.755C359.113 24.5841 361.783 22.006 364.999 21.99C366.414 21.99 367.701 22.4542 368.714 23.2391C369.1 23.559 369.164 24.1196 368.875 24.5201C368.553 24.9204 367.958 24.9844 367.588 24.6962C366.881 24.1196 365.996 23.8155 364.999 23.8155C363.889 23.8155 362.86 24.2639 362.104 24.9684C361.381 25.7051 360.931 26.666 360.931 27.755C360.931 28.8438 361.381 29.8366 362.104 30.5411Z" fill="white"/>
<rect opacity="0.2" x="338.237" y="28.2094" width="52.3049" height="21.7447" fill="#D32343"/>
</g>
<rect x="349.958" y="6.81308" width="7.86119" height="7.86119" rx="3.93059" fill="#FF9C6E" stroke="#D42145" stroke-width="1.04816"/>
<rect x="370.921" y="6.81308" width="7.86119" height="7.86119" rx="3.93059" fill="#FF9C6E" stroke="#D42145" stroke-width="1.04816"/>
<rect x="350.482" width="6.81303" height="14.1501" rx="3.40651" fill="#FF9C6E"/>
<rect x="350.482" width="6.81303" height="10.4816" rx="3.40651" fill="#FFC9A1"/>
<rect x="371.445" width="6.81303" height="14.1501" rx="3.40651" fill="#FF9C6E"/>
<rect x="371.445" width="6.81303" height="10.4816" rx="3.40651" fill="#FFC9A1"/>
</svg>
