<svg width="174" height="42" viewBox="0 0 174 42" fill="none" xmlns="http://www.w3.org/2000/svg">
<path d="M0 21.3208L16 5L24 3L26 11L8.08322 29.4812H0V21.3208Z" fill="url(#paint0_linear)"/>
<path d="M8.08321 5H0V29.4812H8.08321V5Z" fill="#17191E"/>
<path d="M16.1665 13.1604H8.08325V21.3208H16.1665V13.1604Z" fill="#17191E"/>
<path d="M23.9999 3.00016L15.9999 5.00024L18 13.0001L25.9999 11.0002L23.9999 3.00016Z" fill="url(#paint1_linear)"/>
<path d="M47.84 5.58C43.13 5.58 40.79 7.68 40.79 11.85V12H38.63V15.72H40.79V27H44.66V15.72H47.15V12H44.66V11.85C44.66 9.93 45.71 8.97 47.84 8.97C48.38 8.97 48.8 8.97 49.07 9V27H52.94V6.21C50.84 5.79 49.13 5.58 47.84 5.58ZM71.0492 21.09C71.1392 20.52 71.1992 20.01 71.1992 19.5C71.1992 17.25 70.4792 15.39 69.0392 13.86C67.6292 12.33 65.7992 11.58 63.6092 11.58C61.2992 11.58 59.3792 12.33 57.9092 13.86C56.4392 15.36 55.6892 17.25 55.6892 19.5C55.6892 21.78 56.4392 23.67 57.9392 25.17C59.4392 26.67 61.4192 27.42 63.9092 27.42C66.7892 27.42 68.9792 26.34 70.4492 24.21L67.3292 22.41C66.5792 23.4 65.4392 23.91 63.9692 23.91C61.6592 23.91 60.2492 22.98 59.7392 21.09H71.0492ZM59.6792 18.09C60.1292 16.17 61.5392 15.06 63.6092 15.06C65.3792 15.06 66.8792 16.05 67.3292 18.09H59.6792ZM81.3913 19.32L86.6413 12H82.2013L79.1713 16.23L76.1413 12H71.6713L76.9213 19.35L71.4313 27H75.9013L79.1713 22.44L82.4113 27H86.8813L81.3913 19.32ZM97.303 11.67C94.393 11.67 92.083 13.17 90.853 15.48V12H89.353V33H90.853V23.52C92.083 25.83 94.393 27.33 97.303 27.33C101.593 27.33 105.073 23.94 105.073 19.5C105.073 15.06 101.593 11.67 97.303 11.67ZM97.213 25.89C93.643 25.89 90.853 23.07 90.853 19.5C90.853 15.93 93.643 13.11 97.213 13.11C100.783 13.11 103.573 15.93 103.573 19.5C103.573 23.07 100.783 25.89 97.213 25.89ZM108.689 27H110.189V5.1H108.689V27ZM128.012 12V15.39C126.752 13.14 124.442 11.67 121.562 11.67C117.302 11.67 113.792 15.06 113.792 19.5C113.792 23.94 117.302 27.33 121.562 27.33C124.442 27.33 126.752 25.86 128.012 23.61V27H129.542V12H128.012ZM121.682 25.89C118.112 25.89 115.322 23.07 115.322 19.5C115.322 15.93 118.112 13.11 121.682 13.11C125.252 13.11 128.012 15.93 128.012 19.5C128.012 23.07 125.252 25.89 121.682 25.89ZM141.828 13.47V12H137.358V7.8L135.828 8.25V12H132.528V13.47H135.828V23.22C135.828 26.64 137.898 27.6 141.828 27V25.65C138.768 25.92 137.358 25.86 137.358 23.22V13.47H141.828ZM151.269 11.67C146.679 11.67 143.499 15.09 143.499 19.5C143.499 24.03 146.769 27.33 151.389 27.33C154.359 27.33 156.699 25.98 157.929 23.94L156.609 23.16C155.739 24.75 153.879 25.89 151.419 25.89C147.999 25.89 145.419 23.67 145.059 20.28H158.649C158.649 20.04 158.679 19.8 158.679 19.56C158.679 15.45 155.829 11.67 151.269 11.67ZM151.269 13.11C154.209 13.11 156.789 15.15 157.119 18.81H145.059C145.359 15.48 147.849 13.11 151.269 13.11ZM162.619 15.93C162.619 14.13 164.269 13.11 166.219 13.11C167.869 13.11 169.429 13.83 170.059 15.39L171.319 14.67C170.509 12.84 168.649 11.67 166.219 11.67C163.159 11.67 161.119 13.56 161.119 15.93C161.119 21.33 170.209 18.99 170.209 23.07C170.209 24.96 168.439 25.89 166.339 25.89C164.089 25.89 162.469 24.87 161.929 23.25L160.639 24C161.359 25.92 163.339 27.33 166.339 27.33C169.549 27.33 171.709 25.53 171.709 23.07C171.709 17.58 162.619 19.95 162.619 15.93Z" fill="#17191E"/>
<defs>
<linearGradient id="paint0_linear" x1="20.5865" y1="8.69814" x2="-49.166" y2="77.791" gradientUnits="userSpaceOnUse">
<stop stop-color="#FFF33B"/>
<stop offset="0.0853499" stop-color="#FFD731"/>
<stop offset="0.2296" stop-color="#FFAD22"/>
<stop offset="0.3771" stop-color="#FF8B16"/>
<stop offset="0.5265" stop-color="#FF700C"/>
<stop offset="0.6783" stop-color="#FF5D05"/>
<stop offset="0.8341" stop-color="#FF5201"/>
<stop offset="1" stop-color="#FF4E00"/>
</linearGradient>
<linearGradient id="paint1_linear" x1="19.9039" y1="4.046" x2="22.016" y2="11.9283" gradientUnits="userSpaceOnUse">
<stop stop-color="#FF8A00"/>
<stop offset="1" stop-color="#FF2828"/>
</linearGradient>
</defs>
</svg>
